<svg viewBox="0 0 64 64" xmlns="http://www.w3.org/2000/svg">
  <path d="M63.04 39.74c-4.27 17.16-21.61 27.58-38.77 23.31C7.12 58.78-3.3 41.44.97 24.28 5.24 7.12 22.58-3.3 39.74.97c17.16 4.27 27.58 21.61 23.3 38.77z" fill="#F7931A"/>
  <path d="M46.11 27.44c.63-4.21-2.58-6.47-6.97-7.98l1.42-5.72-3.48-.87-1.39 5.57c-.91-.23-1.85-.44-2.78-.66l1.4-5.6-3.48-.86-1.43 5.72c-.75-.17-1.49-.34-2.21-.52l0-.02-4.8-1.2-.93 3.72s2.58.59 2.53.63c1.41.35 1.67 1.28 1.62 2.02l-1.63 6.52c.1.02.22.06.36.12-.12-.03-.24-.06-.36-.09l-2.28 9.14c-.17.43-.61 1.07-1.6.83.04.05-2.53-.63-2.53-.63l-1.73 3.98 4.53 1.13c.84.21 1.67.43 2.48.64l-1.44 5.78 3.47.87 1.43-5.73c.95.26 1.87.49 2.77.72l-1.42 5.69 3.48.87 1.44-5.76c5.93 1.12 10.39.67 12.27-4.7 1.52-4.33-.07-6.83-3.2-8.46 2.28-.52 3.99-2.02 4.45-5.12zm-7.95 11.14c-1.08 4.33-8.37 1.99-10.73 1.4l1.91-7.67c2.37.59 9.95 1.76 8.82 6.27zm1.08-11.21c-.98 3.94-7.05 1.94-9.02 1.45l1.74-6.96c1.97.49 8.3 1.41 7.28 5.51z" fill="#FFF"/>
</svg>
